<?xml version="1.0" standalone="no"?>
<!DOCTYPE svg PUBLIC "-//W3C//DTD SVG 20010904//EN"
 "http://www.w3.org/TR/2001/REC-SVG-20010904/DTD/svg10.dtd">
<svg version="1.0" xmlns="http://www.w3.org/2000/svg"
 width="971.000000pt" height="971.000000pt" viewBox="0 0 971.000000 971.000000"
 preserveAspectRatio="xMidYMid meet">
<metadata>
Created by potrace 1.11, written by Peter Selinger 2001-2013
</metadata>
<g transform="translate(0.000000,971.000000) scale(0.100000,-0.100000)"
fill="#000000" stroke="none">
<path d="M3663 6988 c-229 -457 -1592 -3197 -1919 -3855 -173 -347 -314 -634
-314 -638 0 -7 35 8 180 78 182 86 291 138 345 162 28 13 109 51 180 85 72 34
155 73 185 87 30 14 111 52 179 84 68 33 125 59 126 59 2 0 83 38 180 85 98
47 179 85 181 85 1 0 78 36 170 80 91 44 168 80 170 80 1 0 78 36 170 80 91
44 168 80 169 80 2 0 73 34 160 75 86 41 158 75 160 75 2 0 68 31 147 69 79
37 283 134 453 214 171 80 372 175 449 211 76 36 139 66 141 66 1 0 63 29 136
64 156 74 433 204 534 251 130 60 230 107 332 156 55 27 130 62 165 78 34 16
115 53 178 84 63 30 147 69 185 87 167 78 226 106 325 152 58 28 133 63 167
79 63 29 127 59 367 173 76 36 140 66 142 66 2 0 74 34 159 75 86 41 158 75
160 75 2 0 83 38 180 85 98 47 179 85 180 85 2 0 74 34 160 75 87 41 159 75
161 75 2 0 83 38 180 85 97 47 178 85 180 85 2 0 63 29 136 63 73 35 185 88
248 118 133 62 214 103 185 94 -35 -11 -129 -46 -150 -55 -11 -5 -285 -107
-610 -226 -324 -119 -700 -257 -835 -306 -135 -50 -279 -103 -320 -118 -41
-15 -390 -143 -775 -285 -385 -142 -734 -270 -775 -285 -41 -15 -82 -30 -90
-33 -8 -4 -78 -29 -155 -58 -375 -137 -559 -205 -650 -239 -76 -29 -103 -35
-111 -27 -6 7 -35 57 -64 112 -29 55 -96 181 -150 280 -54 99 -123 230 -155
290 -32 61 -67 122 -77 137 -10 14 -18 31 -18 37 0 6 -10 28 -23 49 -13 20
-47 82 -77 137 -74 139 -113 211 -188 350 -35 66 -83 154 -105 195 -22 41 -52
98 -67 125 -40 73 -245 456 -298 555 -25 47 -62 115 -83 152 -20 37 -40 76
-44 87 -3 12 -10 21 -14 21 -4 0 -66 -118 -138 -262z m180 -1380 c43 -84 134
-263 203 -398 267 -522 327 -641 323 -644 -2 -2 -220 -90 -484 -196 -264 -105
-489 -195 -500 -200 -21 -10 -205 -84 -292 -119 l-52 -20 20 46 c11 26 128
311 260 633 133 322 249 603 259 625 10 22 53 127 96 233 43 105 81 192 84
192 3 0 40 -69 83 -152z"/>
<path d="M5665 3591 c-6 -5 -39 -24 -75 -44 -36 -19 -148 -80 -250 -134 -102
-55 -221 -119 -265 -143 -44 -23 -83 -45 -88 -49 -4 -4 -9 -54 -10 -111 l-2
-104 504 2 c277 1 506 4 509 6 2 3 -49 112 -113 243 -64 131 -128 262 -142
291 -25 50 -46 64 -68 43z"/>
</g>
</svg>
